<?xml version="1.0" standalone="no"?>
<!DOCTYPE svg PUBLIC "-//W3C//DTD SVG 20010904//EN"
 "http://www.w3.org/TR/2001/REC-SVG-20010904/DTD/svg10.dtd">
<svg version="1.0" xmlns="http://www.w3.org/2000/svg"
 width="512.000000pt" height="512.000000pt" viewBox="0 0 512.000000 512.000000"
 preserveAspectRatio="xMidYMid meet">
<metadata>
Created by potrace 1.11, written by Peter Selinger 2001-2013
</metadata>
<g transform="translate(0.000000,512.000000) scale(0.100000,-0.100000)"
fill="#000000" stroke="none">
<path d="M2205 5100 c-376 -57 -679 -166 -987 -356 -261 -161 -501 -378 -701
-634 -262 -335 -454 -812 -505 -1250 -9 -84 -9 -515 0 -600 20 -176 79 -424
134 -570 63 -164 157 -361 206 -432 10 -14 18 -29 18 -33 0 -11 132 -199 185
-264 328 -401 727 -679 1204 -837 104 -35 311 -86 325 -81 8 3 11 536 10 2128
0 1168 1 2129 3 2135 6 17 481 9 570 -10 272 -59 505 -215 656 -443 275 -414
212 -969 -149 -1313 -197 -187 -435 -284 -701 -284 -48 0 -62 -3 -65 -15 -2
-9 -4 -515 -3 -1126 l0 -1110 190 -1 c169 -1 250 5 420 31 72 12 242 55 334
85 675 220 1218 698 1529 1343 29 59 52 113 52 120 0 7 4 17 9 22 14 16 80
218 111 343 55 221 65 320 65 627 -1 300 -9 374 -70 615 -114 454 -337 844
-674 1180 -69 69 -146 141 -170 160 -24 19 -48 40 -55 45 -33 31 -193 141
-275 189 -297 175 -583 275 -976 341 -22 4 -159 8 -305 10 -216 2 -287 -1
-385 -15z"/>
<path d="M2409 4184 c-4 -52 -5 -1780 -1 -1787 2 -4 16 3 31 15 15 13 41 33
57 45 123 91 292 220 313 238 14 13 61 53 104 90 177 153 294 323 322 466 30
159 -37 312 -215 490 -102 102 -202 180 -415 324 -88 60 -168 115 -177 123
-16 14 -18 13 -19 -4z"/>
</g>
</svg>
